<svg width="24" height="25" viewBox="0 0 24 25" fill="none" xmlns="http://www.w3.org/2000/svg">
<path d="M18 8.63281C18 7.04151 17.3679 5.51539 16.2426 4.39017C15.1174 3.26495 13.5913 2.63281 12 2.63281C10.4087 2.63281 8.88258 3.26495 7.75736 4.39017C6.63214 5.51539 6 7.04151 6 8.63281C6 15.6328 3 17.6328 3 17.6328H21C21 17.6328 18 15.6328 18 8.63281Z" stroke="black" stroke-width="2" stroke-linecap="round" stroke-linejoin="round"/>
<path d="M13.73 21.6328C13.5542 21.9359 13.3019 22.1875 12.9982 22.3623C12.6946 22.5372 12.3504 22.6293 12 22.6293C11.6496 22.6293 11.3054 22.5372 11.0018 22.3623C10.6982 22.1875 10.4458 21.9359 10.27 21.6328" stroke="black" stroke-width="2" stroke-linecap="round" stroke-linejoin="round"/>
</svg>
