<svg width="24" height="25" viewBox="0 0 24 25" fill="none" xmlns="http://www.w3.org/2000/svg">
<path d="M2 3.63281H8C9.06087 3.63281 10.0783 4.05424 10.8284 4.80439C11.5786 5.55453 12 6.57195 12 7.63281V21.6328C12 20.8372 11.6839 20.0741 11.1213 19.5115C10.5587 18.9489 9.79565 18.6328 9 18.6328H2V3.63281Z" stroke="black" stroke-width="2" stroke-linecap="round" stroke-linejoin="round"/>
<path d="M22 3.63281H16C14.9391 3.63281 13.9217 4.05424 13.1716 4.80439C12.4214 5.55453 12 6.57195 12 7.63281V21.6328C12 20.8372 12.3161 20.0741 12.8787 19.5115C13.4413 18.9489 14.2044 18.6328 15 18.6328H22V3.63281Z" stroke="black" stroke-width="2" stroke-linecap="round" stroke-linejoin="round"/>
</svg>
