<svg width="24" height="25" viewBox="0 0 24 25" fill="none" xmlns="http://www.w3.org/2000/svg">
<g clip-path="url(#clip0_510_810)">
<path d="M12 1.63281V23.6328" stroke="black" stroke-width="2" stroke-linecap="round" stroke-linejoin="round"/>
<path d="M17 5.63281H9.5C8.57174 5.63281 7.6815 6.00156 7.02513 6.65794C6.36875 7.31432 6 8.20455 6 9.13281C6 10.0611 6.36875 10.9513 7.02513 11.6077C7.6815 12.2641 8.57174 12.6328 9.5 12.6328H14.5C15.4283 12.6328 16.3185 13.0016 16.9749 13.6579C17.6313 14.3143 18 15.2046 18 16.1328C18 17.0611 17.6313 17.9513 16.9749 18.6077C16.3185 19.2641 15.4283 19.6328 14.5 19.6328H6" stroke="black" stroke-width="2" stroke-linecap="round" stroke-linejoin="round"/>
</g>
<defs>
<clipPath id="clip0_510_810">
<rect width="24" height="24" fill="white" transform="translate(0 0.632812)"/>
</clipPath>
</defs>
</svg>
