<svg width="24" height="25" viewBox="0 0 24 25" fill="none" xmlns="http://www.w3.org/2000/svg">
<path d="M11 4.63281H4C3.46957 4.63281 2.96086 4.84353 2.58579 5.2186C2.21071 5.59367 2 6.10238 2 6.63281V20.6328C2 21.1632 2.21071 21.672 2.58579 22.047C2.96086 22.4221 3.46957 22.6328 4 22.6328H18C18.5304 22.6328 19.0391 22.4221 19.4142 22.047C19.7893 21.672 20 21.1632 20 20.6328V13.6328" stroke="#F36A22" stroke-width="2" stroke-linecap="round" stroke-linejoin="round"/>
<path d="M18.5 3.13304C18.8978 2.73521 19.4374 2.51172 20 2.51172C20.5626 2.51172 21.1022 2.73521 21.5 3.13304C21.8978 3.53086 22.1213 4.07043 22.1213 4.63304C22.1213 5.19565 21.8978 5.73521 21.5 6.13304L12 15.633L8 16.633L9 12.633L18.5 3.13304Z" stroke="#F36A22" stroke-width="2" stroke-linecap="round" stroke-linejoin="round"/>
</svg>
