<svg width="24" height="25" viewBox="0 0 24 25" fill="none" xmlns="http://www.w3.org/2000/svg">
<path d="M14 2.32227H6C5.46957 2.32227 4.96086 2.53298 4.58579 2.90805C4.21071 3.28312 4 3.79183 4 4.32227V20.3223C4 20.8527 4.21071 21.3614 4.58579 21.7365C4.96086 22.1116 5.46957 22.3223 6 22.3223H18C18.5304 22.3223 19.0391 22.1116 19.4142 21.7365C19.7893 21.3614 20 20.8527 20 20.3223V8.32227L14 2.32227Z" stroke="white" stroke-width="2" stroke-linecap="round" stroke-linejoin="round"/>
<path d="M14 2.32227V8.32227H20" stroke="white" stroke-width="2" stroke-linecap="round" stroke-linejoin="round"/>
<path d="M16 13.3223H8" stroke="white" stroke-width="2" stroke-linecap="round" stroke-linejoin="round"/>
<path d="M16 17.3223H8" stroke="white" stroke-width="2" stroke-linecap="round" stroke-linejoin="round"/>
<path d="M10 9.32227H9H8" stroke="white" stroke-width="2" stroke-linecap="round" stroke-linejoin="round"/>
</svg>
