<svg width="24" height="25" viewBox="0 0 24 25" fill="none" xmlns="http://www.w3.org/2000/svg">
<path d="M23 4.63281V10.6328H17" stroke="black" stroke-width="2" stroke-linecap="round" stroke-linejoin="round"/>
<path d="M1 20.6328V14.6328H7" stroke="black" stroke-width="2" stroke-linecap="round" stroke-linejoin="round"/>
<path d="M3.51 9.6324C4.01717 8.19919 4.87913 6.9178 6.01547 5.90782C7.1518 4.89783 8.52547 4.19216 10.0083 3.85666C11.4911 3.52115 13.0348 3.56674 14.4952 3.98917C15.9556 4.41161 17.2853 5.19711 18.36 6.2724L23 10.6324M1 14.6324L5.64 18.9924C6.71475 20.0677 8.04437 20.8532 9.50481 21.2756C10.9652 21.6981 12.5089 21.7436 13.9917 21.4081C15.4745 21.0726 16.8482 20.367 17.9845 19.357C19.1209 18.347 19.9828 17.0656 20.49 15.6324" stroke="black" stroke-width="2" stroke-linecap="round" stroke-linejoin="round"/>
</svg>
