<svg width="24" height="25" viewBox="0 0 24 25" fill="none" xmlns="http://www.w3.org/2000/svg">
<g clip-path="url(#clip0_510_758)">
<path d="M12 15.6328C13.6569 15.6328 15 14.2897 15 12.6328C15 10.976 13.6569 9.63281 12 9.63281C10.3431 9.63281 9 10.976 9 12.6328C9 14.2897 10.3431 15.6328 12 15.6328Z" stroke="black" stroke-width="2" stroke-linecap="round" stroke-linejoin="round"/>
<path d="M19.4 15.6328C19.2669 15.9344 19.2272 16.269 19.286 16.5934C19.3448 16.9178 19.4995 17.2171 19.73 17.4528L19.79 17.5128C19.976 17.6986 20.1235 17.9191 20.2241 18.1619C20.3248 18.4047 20.3766 18.665 20.3766 18.9278C20.3766 19.1906 20.3248 19.4509 20.2241 19.6937C20.1235 19.9365 19.976 20.1571 19.79 20.3428C19.6043 20.5288 19.3837 20.6763 19.1409 20.7769C18.8981 20.8776 18.6378 20.9294 18.375 20.9294C18.1122 20.9294 17.8519 20.8776 17.6091 20.7769C17.3663 20.6763 17.1457 20.5288 16.96 20.3428L16.9 20.2828C16.6643 20.0523 16.365 19.8976 16.0406 19.8388C15.7162 19.78 15.3816 19.8197 15.08 19.9528C14.7842 20.0796 14.532 20.2901 14.3543 20.5583C14.1766 20.8266 14.0813 21.141 14.08 21.4628V21.6328C14.08 22.1632 13.8693 22.672 13.4942 23.047C13.1191 23.4221 12.6104 23.6328 12.08 23.6328C11.5496 23.6328 11.0409 23.4221 10.6658 23.047C10.2907 22.672 10.08 22.1632 10.08 21.6328V21.5428C10.0723 21.2118 9.96512 20.8908 9.77251 20.6215C9.5799 20.3522 9.31074 20.1471 9 20.0328C8.69838 19.8997 8.36381 19.86 8.03941 19.9188C7.71502 19.9776 7.41568 20.1323 7.18 20.3628L7.12 20.4228C6.93425 20.6088 6.71368 20.7563 6.47088 20.8569C6.22808 20.9576 5.96783 21.0094 5.705 21.0094C5.44217 21.0094 5.18192 20.9576 4.93912 20.8569C4.69632 20.7563 4.47575 20.6088 4.29 20.4228C4.10405 20.2371 3.95653 20.0165 3.85588 19.7737C3.75523 19.5309 3.70343 19.2706 3.70343 19.0078C3.70343 18.745 3.75523 18.4847 3.85588 18.2419C3.95653 17.9991 4.10405 17.7786 4.29 17.5928L4.35 17.5328C4.58054 17.2971 4.73519 16.9978 4.794 16.6734C4.85282 16.349 4.81312 16.0144 4.68 15.7128C4.55324 15.417 4.34276 15.1648 4.07447 14.9871C3.80618 14.8094 3.49179 14.7141 3.17 14.7128H3C2.46957 14.7128 1.96086 14.5021 1.58579 14.127C1.21071 13.752 1 13.2432 1 12.7128C1 12.1824 1.21071 11.6737 1.58579 11.2986C1.96086 10.9235 2.46957 10.7128 3 10.7128H3.09C3.42099 10.7051 3.742 10.5979 4.0113 10.4053C4.28059 10.2127 4.48572 9.94355 4.6 9.63281C4.73312 9.3312 4.77282 8.99662 4.714 8.67222C4.65519 8.34783 4.50054 8.04849 4.27 7.81281L4.21 7.75281C4.02405 7.56707 3.87653 7.34649 3.77588 7.10369C3.67523 6.8609 3.62343 6.60064 3.62343 6.33781C3.62343 6.07498 3.67523 5.81473 3.77588 5.57193C3.87653 5.32914 4.02405 5.10856 4.21 4.92281C4.39575 4.73686 4.61632 4.58934 4.85912 4.48869C5.10192 4.38804 5.36217 4.33624 5.625 4.33624C5.88783 4.33624 6.14808 4.38804 6.39088 4.48869C6.63368 4.58934 6.85425 4.73686 7.04 4.92281L7.1 4.98281C7.33568 5.21335 7.63502 5.368 7.95941 5.42682C8.28381 5.48564 8.61838 5.44593 8.92 5.31281H9C9.29577 5.18605 9.54802 4.97557 9.72569 4.70728C9.90337 4.43899 9.99872 4.1246 10 3.80281V3.63281C10 3.10238 10.2107 2.59367 10.5858 2.2186C10.9609 1.84353 11.4696 1.63281 12 1.63281C12.5304 1.63281 13.0391 1.84353 13.4142 2.2186C13.7893 2.59367 14 3.10238 14 3.63281V3.72281C14.0013 4.0446 14.0966 4.35899 14.2743 4.62728C14.452 4.89557 14.7042 5.10605 15 5.23281C15.3016 5.36593 15.6362 5.40564 15.9606 5.34682C16.285 5.288 16.5843 5.13335 16.82 4.90281L16.88 4.84281C17.0657 4.65686 17.2863 4.50934 17.5291 4.40869C17.7719 4.30804 18.0322 4.25624 18.295 4.25624C18.5578 4.25624 18.8181 4.30804 19.0609 4.40869C19.3037 4.50934 19.5243 4.65686 19.71 4.84281C19.896 5.02856 20.0435 5.24914 20.1441 5.49193C20.2448 5.73473 20.2966 5.99498 20.2966 6.25781C20.2966 6.52064 20.2448 6.7809 20.1441 7.02369C20.0435 7.26649 19.896 7.48707 19.71 7.67281L19.65 7.73281C19.4195 7.96849 19.2648 8.26783 19.206 8.59222C19.1472 8.91662 19.1869 9.2512 19.32 9.55281V9.63281C19.4468 9.92858 19.6572 10.1808 19.9255 10.3585C20.1938 10.5362 20.5082 10.6315 20.83 10.6328H21C21.5304 10.6328 22.0391 10.8435 22.4142 11.2186C22.7893 11.5937 23 12.1024 23 12.6328C23 13.1632 22.7893 13.672 22.4142 14.047C22.0391 14.4221 21.5304 14.6328 21 14.6328H20.91C20.5882 14.6341 20.2738 14.7294 20.0055 14.9071C19.7372 15.0848 19.5268 15.337 19.4 15.6328Z" stroke="black" stroke-width="2" stroke-linecap="round" stroke-linejoin="round"/>
</g>
<defs>
<clipPath id="clip0_510_758">
<rect width="24" height="24" fill="white" transform="translate(0 0.632812)"/>
</clipPath>
</defs>
</svg>
