<svg width="24" height="25" viewBox="0 0 24 25" fill="none" xmlns="http://www.w3.org/2000/svg">
<path d="M12 22.6328C17.5228 22.6328 22 18.1557 22 12.6328C22 7.10996 17.5228 2.63281 12 2.63281C6.47715 2.63281 2 7.10996 2 12.6328C2 18.1557 6.47715 22.6328 12 22.6328Z" stroke="black" stroke-width="2" stroke-linecap="round" stroke-linejoin="round"/>
<path d="M12 18.6328C15.3137 18.6328 18 15.9465 18 12.6328C18 9.3191 15.3137 6.63281 12 6.63281C8.68629 6.63281 6 9.3191 6 12.6328C6 15.9465 8.68629 18.6328 12 18.6328Z" stroke="black" stroke-width="2" stroke-linecap="round" stroke-linejoin="round"/>
<path d="M12 14.6328C13.1046 14.6328 14 13.7374 14 12.6328C14 11.5282 13.1046 10.6328 12 10.6328C10.8954 10.6328 10 11.5282 10 12.6328C10 13.7374 10.8954 14.6328 12 14.6328Z" stroke="black" stroke-width="2" stroke-linecap="round" stroke-linejoin="round"/>
</svg>
