<svg width="24" height="25" viewBox="0 0 24 25" fill="none" xmlns="http://www.w3.org/2000/svg">
<path d="M3 6.63281H5H21" stroke="#F36A22" stroke-width="2" stroke-linecap="round" stroke-linejoin="round"/>
<path d="M19 6.63281V20.6328C19 21.1632 18.7893 21.672 18.4142 22.047C18.0391 22.4221 17.5304 22.6328 17 22.6328H7C6.46957 22.6328 5.96086 22.4221 5.58579 22.047C5.21071 21.672 5 21.1632 5 20.6328V6.63281M8 6.63281V4.63281C8 4.10238 8.21071 3.59367 8.58579 3.2186C8.96086 2.84353 9.46957 2.63281 10 2.63281H14C14.5304 2.63281 15.0391 2.84353 15.4142 3.2186C15.7893 3.59367 16 4.10238 16 4.63281V6.63281" stroke="#F36A22" stroke-width="2" stroke-linecap="round" stroke-linejoin="round"/>
<path d="M10 11.6328V17.6328" stroke="#F36A22" stroke-width="2" stroke-linecap="round" stroke-linejoin="round"/>
<path d="M14 11.6328V17.6328" stroke="#F36A22" stroke-width="2" stroke-linecap="round" stroke-linejoin="round"/>
</svg>
