<svg width="24" height="25" viewBox="0 0 24 25" fill="none" xmlns="http://www.w3.org/2000/svg">
<path d="M16 21.6328V19.6328C16 18.5719 15.5786 17.5545 14.8284 16.8044C14.0783 16.0542 13.0609 15.6328 12 15.6328H5C3.93913 15.6328 2.92172 16.0542 2.17157 16.8044C1.42143 17.5545 1 18.5719 1 19.6328V21.6328" stroke="black" stroke-width="2" stroke-linecap="round" stroke-linejoin="round"/>
<path d="M8.5 11.6328C10.7091 11.6328 12.5 9.84195 12.5 7.63281C12.5 5.42367 10.7091 3.63281 8.5 3.63281C6.29086 3.63281 4.5 5.42367 4.5 7.63281C4.5 9.84195 6.29086 11.6328 8.5 11.6328Z" stroke="black" stroke-width="2" stroke-linecap="round" stroke-linejoin="round"/>
<path d="M17 11.6328L19 13.6328L23 9.63281" stroke="black" stroke-width="2" stroke-linecap="round" stroke-linejoin="round"/>
</svg>
