<svg width="24" height="25" viewBox="0 0 24 25" fill="none" xmlns="http://www.w3.org/2000/svg">
<path d="M17 21.6328V19.6328C17 18.5719 16.5786 17.5545 15.8284 16.8044C15.0783 16.0542 14.0609 15.6328 13 15.6328H5C3.93913 15.6328 2.92172 16.0542 2.17157 16.8044C1.42143 17.5545 1 18.5719 1 19.6328V21.6328" stroke="black" stroke-width="2" stroke-linecap="round" stroke-linejoin="round"/>
<path d="M9 11.6328C11.2091 11.6328 13 9.84195 13 7.63281C13 5.42367 11.2091 3.63281 9 3.63281C6.79086 3.63281 5 5.42367 5 7.63281C5 9.84195 6.79086 11.6328 9 11.6328Z" stroke="black" stroke-width="2" stroke-linecap="round" stroke-linejoin="round"/>
<path d="M23 21.6327V19.6327C22.9993 18.7464 22.7044 17.8855 22.1614 17.185C21.6184 16.4846 20.8581 15.9843 20 15.7627" stroke="black" stroke-width="2" stroke-linecap="round" stroke-linejoin="round"/>
<path d="M16 3.7627C16.8604 3.983 17.623 4.4834 18.1676 5.18501C18.7122 5.88662 19.0078 6.74953 19.0078 7.6377C19.0078 8.52587 18.7122 9.38878 18.1676 10.0904C17.623 10.792 16.8604 11.2924 16 11.5127" stroke="black" stroke-width="2" stroke-linecap="round" stroke-linejoin="round"/>
</svg>
